<svg xmlns="http://www.w3.org/2000/svg" xmlns:xlink="http://www.w3.org/1999/xlink" version="1.1" x="0px" y="0px" viewBox="0 0 512 640" style="enable-background:new 0 0 512 512;" xml:space="preserve"><g><g><g><g><path d="M255.785,100.809c-2.761,0-5-2.239-5-5V42.926c0-2.762,2.239-5,5-5c2.762,0,5,2.238,5,5v52.883      C260.785,98.569,258.547,100.809,255.785,100.809z"/></g><g><path d="M418.736,188.947c-1.783,0-3.512-0.958-4.412-2.642c-1.303-2.435-0.385-5.465,2.049-6.768l49.014-26.227      c2.434-1.302,5.465-0.387,6.768,2.05c1.303,2.435,0.387,5.465-2.049,6.768l-49.014,26.227      C420.342,188.757,419.533,188.947,418.736,188.947z"/></g><g><path d="M92.833,188.947c-0.796,0-1.604-0.19-2.354-0.592l-49.014-26.227c-2.435-1.303-3.353-4.333-2.05-6.768      c1.303-2.435,4.333-3.353,6.768-2.05l49.014,26.227c2.435,1.303,3.353,4.333,2.05,6.768      C96.345,187.989,94.618,188.947,92.833,188.947z"/></g><g><path d="M345.639,131.335c-0.895,0-1.799-0.239-2.615-0.742c-2.354-1.447-3.086-4.527-1.639-6.879l17.197-27.946      c1.447-2.352,4.527-3.086,6.879-1.638c2.352,1.447,3.084,4.526,1.639,6.879l-17.197,27.946      C348.957,130.489,347.316,131.335,345.639,131.335z"/></g><g><path d="M469.896,277.515H435.5c-2.762,0-5-2.239-5-5c0-2.762,2.238-5,5-5h34.396c2.762,0,5,2.238,5,5      C474.896,275.275,472.658,277.515,469.896,277.515z"/></g><g><path d="M76.5,277.515H42.104c-2.761,0-5-2.239-5-5c0-2.762,2.239-5,5-5H76.5c2.761,0,5,2.238,5,5      C81.5,275.275,79.261,277.515,76.5,277.515z"/></g><g><path d="M165.932,131.335c-1.679,0-3.319-0.846-4.263-2.38l-17.198-27.946c-1.447-2.353-0.714-5.432,1.638-6.879      c2.353-1.448,5.432-0.714,6.879,1.638l17.198,27.946c1.447,2.352,0.714,5.432-1.638,6.879      C167.73,131.096,166.826,131.335,165.932,131.335z"/></g><g><path d="M467.742,392.31c-0.797,0-1.604-0.19-2.355-0.593l-49.014-26.227c-2.434-1.303-3.352-4.333-2.049-6.768      s4.332-3.35,6.768-2.05l49.014,26.227c2.436,1.303,3.352,4.333,2.049,6.768C471.254,391.351,469.527,392.31,467.742,392.31z"/></g><g><path d="M43.828,392.31c-1.785,0-3.512-0.958-4.413-2.643c-1.303-2.435-0.385-5.465,2.05-6.768l49.014-26.227      c2.435-1.303,5.465-0.386,6.768,2.05c1.303,2.435,0.385,5.465-2.05,6.768l-49.014,26.227      C45.432,392.119,44.624,392.31,43.828,392.31z"/></g><g><path d="M362.846,451.641c-1.68,0-3.318-0.845-4.264-2.38l-17.197-27.946c-1.447-2.352-0.715-5.432,1.639-6.879      c2.35-1.447,5.43-0.714,6.879,1.638L367.1,444.02c1.445,2.353,0.713,5.432-1.639,6.879      C364.645,451.401,363.738,451.641,362.846,451.641z"/></g><g><path d="M148.725,451.641c-0.894,0-1.798-0.239-2.616-0.742c-2.352-1.447-3.085-4.526-1.638-6.879l17.198-27.946      c1.447-2.352,4.527-3.084,6.879-1.638c2.352,1.447,3.085,4.527,1.638,6.879l-17.198,27.946      C152.043,450.796,150.403,451.641,148.725,451.641z"/></g><g><path d="M274.334,474.074c-1.797,0-3.533-0.971-4.428-2.67c-1.287-2.443-0.35-5.468,2.094-6.755      c8.244-4.344,13.365-12.824,13.365-22.133c0-0.026,0-0.062,0-0.099l-0.379-179.893c-0.004-1.328,0.521-2.603,1.461-3.543      c0.938-0.939,2.211-1.468,3.539-1.468h30c13.785,0,25-11.215,25-25s-11.215-25-25-25h-30c-2.762,0-5-2.239-5-5v-30      c0-13.785-11.215-25-25-25h-10c-13.785,0-25,11.215-25,25v30c0,2.761-2.239,5-5,5h-30c-13.785,0-25,11.215-25,25      s11.215,25,25,25h30c1.328,0,2.601,0.528,3.539,1.468c0.938,0.94,1.464,2.215,1.461,3.543l-0.32,151.429      c-0.006,2.757-2.244,4.989-5,4.989c-0.003,0-0.007,0-0.011,0c-2.761-0.006-4.995-2.249-4.989-5.011l0.31-146.418h-24.989      c-19.299,0-35-15.701-35-35s15.701-35,35-35h25v-25c0-19.299,15.701-35,35-35h10c19.299,0,35,15.701,35,35v25h25      c19.299,0,35,15.701,35,35s-15.701,35-35,35h-24.99l0.369,174.926c0,0.037,0,0.074,0,0.111      c-0.014,13.02-7.178,24.873-18.705,30.945C275.916,473.889,275.119,474.074,274.334,474.074z M227.601,467.904      c-1.344,0-2.684-0.538-3.669-1.603c-0.264-0.285-0.524-0.574-0.778-0.868c-1.808-2.087-1.582-5.245,0.505-7.053      c2.087-1.807,5.245-1.582,7.053,0.505c0.182,0.211,0.368,0.417,0.557,0.621c1.876,2.026,1.755,5.189-0.271,7.066      C230.036,467.464,228.817,467.904,227.601,467.904z"/></g><g><path d="M255.572,417.515h-1.797c-2.761,0-5-2.239-5-5c0-2.762,2.239-5,5-5h1.797c2.762,0,5,2.238,5,5      C260.572,415.275,258.334,417.515,255.572,417.515z"/></g><g><path d="M255.572,387.515h-1.797c-2.761,0-5-2.239-5-5c0-2.762,2.239-5,5-5h1.797c2.762,0,5,2.238,5,5      C260.572,385.275,258.334,387.515,255.572,387.515z"/></g><g><path d="M255.572,357.515h-1.797c-2.761,0-5-2.239-5-5c0-2.762,2.239-5,5-5h1.797c2.762,0,5,2.238,5,5      C260.572,355.275,258.334,357.515,255.572,357.515z"/></g><g><path d="M255.572,327.515h-1.797c-2.761,0-5-2.239-5-5c0-2.762,2.239-5,5-5h1.797c2.762,0,5,2.238,5,5      C260.572,325.275,258.334,327.515,255.572,327.515z"/></g></g></g></g><text x="0" y="527" fill="#000000" font-size="5px" font-weight="bold" font-family="'Helvetica Neue', Helvetica, Arial-Unicode, Arial, Sans-serif">Created by Flatart</text><text x="0" y="532" fill="#000000" font-size="5px" font-weight="bold" font-family="'Helvetica Neue', Helvetica, Arial-Unicode, Arial, Sans-serif">from the Noun Project</text></svg>